Coordinates
version=1
nRows=14
nColumns=40
inDegrees=yes

Units are S.I. units (second, meters, Newtons, ...)
If the header above contains a line with 'inDegrees', this indicates whether rotational values are in degrees (yes) or radians (no).

endheader
time	pelvis_tilt	pelvis_list	pelvis_rotation	pelvis_tx	pelvis_ty	pelvis_tz	hip_flexion_r	hip_adduction_r	hip_rotation_r	knee_angle_r	knee_angle_r_beta	ankle_angle_r	subtalar_angle_r	mtp_angle_r	hip_flexion_l	hip_adduction_l	hip_rotation_l	knee_angle_l	knee_angle_l_beta	ankle_angle_l	subtalar_angle_l	mtp_angle_l	lumbar_extension	lumbar_bending	lumbar_rotation	arm_flex_r	arm_add_r	arm_rot_r	elbow_flex_r	pro_sup_r	wrist_flex_r	wrist_dev_r	arm_flex_l	arm_add_l	arm_rot_l	elbow_flex_l	pro_sup_l	wrist_flex_l	wrist_dev_l
      1.40000000	     -2.44240575	     -6.24222446	     87.90022658	      0.17573178	      0.99739439	      0.54109411	     27.72025346	     -3.42619132	     -4.24780700	     50.78326472	      0.88633517	      5.24775371	      0.00000000	      0.00000000	      9.01809712	      5.88541261	      1.12427376	      9.99710057	      0.17448232	      5.89493073	      0.00000000	      0.00000000	     -0.35827840	     -3.21507631	     -5.46786133	      0.00000000	      0.00000000	      0.00000000	      0.00000000	      0.00000000	      0.00000000	      0.00000000	      0.00000000	      0.00000000	      0.00000000	      0.00000000	      0.00000000	      0.00000000	      0.00000000
      1.41000000	     -2.33966796	     -6.29292295	     88.28818860	      0.17532370	      0.99721883	      0.53105216	     28.40497013	     -3.30361131	     -4.49905553	     48.45653548	      0.84572609	      5.24529372	      0.00000000	     -0.00000000	      8.14742920	      5.86004305	      1.57863679	      9.51415009	      0.16605324	      6.26863111	      0.00000000	      0.00000000	     -0.34396030	     -3.14550980	     -5.86816620	     -0.00000000	      0.00000000	      0.00000000	      0.00000000	      0.00000000	     -0.00000000	     -0.00000000	      0.00000000	     -0.00000000	      0.00000000	      0.00000000	      0.00000000	      0.00000000	     -0.00000000
      1.42000000	     -2.58439399	     -6.53134309	     88.53991813	      0.17490943	      0.99641919	      0.52123830	     29.37113982	     -3.48883109	     -4.44535520	     46.18004882	      0.80599390	      5.32822185	      0.00000000	      0.00000000	      7.64869627	      6.14735193	      1.41840290	      9.30038085	      0.16232227	      6.49852338	      0.00000000	      0.00000000	     -0.11434393	     -3.44831326	     -5.98156313	      0.00000000	      0.00000000	      0.00000000	      0.00000000	      0.00000000	      0.00000000	      0.00000000	      0.00000000	      0.00000000	      0.00000000	      0.00000000	      0.00000000	      0.00000000	      0.00000000
      1.43000000	     -2.25099780	     -6.20676021	     89.01348057	      0.17459210	      0.99664199	      0.51072723	     29.30283743	     -3.16574745	     -4.80921261	     43.28620936	      0.75548687	      4.85546854	      0.00000000	      0.00000000	      6.20008311	      5.88465749	      2.34647795	      8.56925523	      0.14956172	      6.97887536	      0.00000000	      0.00000000	     -0.52223568	     -3.11696836	     -6.58059260	      0.00000000	      0.00000000	      0.00000000	      0.00000000	      0.00000000	      0.00000000	      0.00000000	      0.00000000	      0.00000000	      0.00000000	      0.00000000	      0.00000000	      0.00000000	      0.00000000
      1.44000000	     -2.26445552	     -6.25724282	     89.27485395	      0.17442413	      0.99597124	      0.50055622	     29.76437304	     -3.11122926	     -4.83503934	     40.52489784	      0.70729290	      4.49953660	      0.00000000	      0.00000000	      5.34639159	      5.92438465	      2.65903190	      8.13161086	      0.14192338	      7.36846383	      0.00000000	      0.00000000	     -0.50911972	     -3.16915515	     -6.80523751	      0.00000000	      0.00000000	      0.00000000	      0.00000000	      0.00000000	      0.00000000	      0.00000000	      0.00000000	      0.00000000	      0.00000000	      0.00000000	      0.00000000	      0.00000000	      0.00000000
      1.45000000	     -2.31134660	     -6.26371844	     89.47475795	      0.17427813	      0.99519963	      0.49029400	     30.10306469	     -3.08693809	     -4.82710648	     37.64637017	      0.65705311	      4.00295202	      0.00000000	      0.00000000	      4.46167965	      5.99240647	      2.91345553	      7.73851592	      0.13506258	      7.76556711	      0.00000000	      0.00000000	     -0.53471847	     -3.22711777	     -6.92707987	      0.00000000	      0.00000000	      0.00000000	      0.00000000	      0.00000000	      0.00000000	      0.00000000	      0.00000000	      0.00000000	      0.00000000	      0.00000000	      0.00000000	      0.00000000	      0.00000000
      1.46000000	     -2.42394026	     -6.54563728	     89.58959738	      0.17445247	      0.99384706	      0.48019316	     30.75364405	     -3.03444086	     -4.59000349	     34.78040547	      0.60703259	      3.60774554	     -0.00000000	      0.00000000	      3.88893807	      6.10237923	      3.16277610	      7.36436673	      0.12853245	      8.21499991	      0.00000000	      0.00000000	     -0.26712074	     -3.41970017	     -7.04230153	      0.00000000	      0.00000000	     -0.00000000	      0.00000000	      0.00000000	      0.00000000	     -0.00000000	     -0.00000000	      0.00000000	     -0.00000000	      0.00000000	      0.00000000	     -0.00000000	     -0.00000000
      1.47000000	     -2.54479766	     -6.71679971	     89.67931596	      0.17458925	      0.99253148	      0.46996094	     31.19383047	     -3.01272484	     -4.39383660	     31.80735890	      0.55514314	      3.06331116	      0.00000000	      0.00000000	      3.21596464	      6.22219947	      3.36915273	      7.04389658	      0.12293919	      8.66515103	      0.00000000	      0.00000000	     -0.12397172	     -3.58785829	     -7.11394566	      0.00000000	      0.00000000	      0.00000000	      0.00000000	      0.00000000	      0.00000000	      0.00000000	      0.00000000	      0.00000000	      0.00000000	      0.00000000	      0.00000000	      0.00000000	      0.00000000
      1.48000000	     -2.64310088	     -6.67132729	     89.73500227	      0.17484345	      0.99139026	      0.45946484	     31.31097094	     -2.96629145	     -4.23521158	     28.74656248	      0.50172216	      2.42282555	      0.00000000	      0.00000000	      2.26531257	      6.30317411	      3.48080761	      6.66489036	      0.11632428	      9.10105865	      0.00000000	      0.00000000	     -0.22080120	     -3.73205294	     -7.06254810	      0.00000000	      0.00000000	      0.00000000	      0.00000000	      0.00000000	      0.00000000	      0.00000000	      0.00000000	      0.00000000	      0.00000000	      0.00000000	      0.00000000	      0.00000000	      0.00000000
      1.49000000	     -2.81513395	     -6.97143549	     89.77678026	      0.17508812	      0.98958244	      0.44914553	     31.83198914	     -2.98527367	     -3.98822186	     25.78257096	      0.44999075	      1.89075184	      0.00000000	      0.00000000	      1.75295357	      6.46811562	      3.67518829	      6.39754800	      0.11165828	      9.59802399	      0.00000000	      0.00000000	      0.06818646	     -3.95374713	     -7.04161447	      0.00000000	      0.00000000	      0.00000000	      0.00000000	      0.00000000	      0.00000000	      0.00000000	      0.00000000	      0.00000000	      0.00000000	      0.00000000	      0.00000000	      0.00000000	      0.00000000
      1.50000000	     -2.97866463	     -7.19251521	     89.80887818	      0.17537309	      0.98777127	      0.43872316	     32.22036375	     -3.00847538	     -3.80226975	     22.81036263	      0.39811593	      1.32022646	      0.00000000	      0.00000000	      1.16316525	      6.62109219	      3.84219430	      6.16087848	      0.10752761	     10.08925433	      0.00000000	      0.00000000	      0.26409146	     -4.16418388	     -7.00421710	      0.00000000	      0.00000000	      0.00000000	      0.00000000	      0.00000000	      0.00000000	      0.00000000	      0.00000000	      0.00000000	      0.00000000	      0.00000000	      0.00000000	      0.00000000	      0.00000000
      1.51000000	     -3.09633934	     -7.25288090	     89.83160481	      0.17573258	      0.98609078	      0.42809143	     32.37719401	     -2.99165944	     -3.71416263	     19.84010956	      0.34627524	      0.66337068	      0.00000000	      0.00000000	      0.35637044	      6.71189953	      3.93540079	      5.85988228	      0.10227424	     10.58411520	      0.00000000	      0.00000000	      0.26465362	     -4.31774313	     -6.89043971	      0.00000000	      0.00000000	      0.00000000	      0.00000000	      0.00000000	      0.00000000	      0.00000000	      0.00000000	      0.00000000	      0.00000000	      0.00000000	      0.00000000	      0.00000000	      0.00000000
      1.52000000	     -3.26674594	     -7.51430429	     89.84930856	      0.17609166	      0.98398853	      0.41751448	     32.78788544	     -3.02100008	     -3.57034568	     17.01727719	      0.29700752	      0.16662792	      0.00000000	      0.00000000	     -0.19464712	      6.86015858	      4.08624371	      5.63395840	      0.09833112	     11.09006329	      0.00000000	      0.00000000	      0.49655309	     -4.53698164	     -6.80761751	      0.00000000	      0.00000000	      0.00000000	      0.00000000	      0.00000000	      0.00000000	      0.00000000	      0.00000000	      0.00000000	      0.00000000	      0.00000000	      0.00000000	      0.00000000	      0.00000000
      1.53000000	     -3.46833578	     -7.88631520	     89.86445749	      0.17643691	      0.98162822	      0.40697307	     33.34853952	     -3.08428735	     -3.40275543	     14.35829567	      0.25059953	     -0.13499952	      0.00000000	      0.00000000	     -0.59905777	      7.04664569	      4.28042898	      5.46206391	      0.09533100	     11.56107362	      0.00000000	      0.00000000	      0.84509575	     -4.78561155	     -6.72121094	      0.00000000	      0.00000000	      0.00000000	      0.00000000	      0.00000000	      0.00000000	      0.00000000	      0.00000000	      0.00000000	      0.00000000	      0.00000000	      0.00000000	      0.00000000	      0.00000000
